<?xml version="1.0" encoding="UTF-8" standalone="no"?>
<svg width="24px" height="24px" viewBox="0 0 24 24" version="1.1" xmlns="http://www.w3.org/2000/svg" xmlns:xlink="http://www.w3.org/1999/xlink" xmlns:sketch="http://www.bohemiancoding.com/sketch/ns">
    <!-- Generator: Sketch 3.4.4 (17249) - http://www.bohemiancoding.com/sketch -->
    <title>icon_teacher@1x</title>
    <desc>Created with Sketch.</desc>
    <defs></defs>
    <g id="Icons" stroke="none" stroke-width="1" fill="none" fill-rule="evenodd" sketch:type="MSPage">
        <g id="Common-Icons" sketch:type="MSArtboardGroup" transform="translate(-192.000000, -48.000000)" stroke="#979797">
            <g id="icon_teacher" sketch:type="MSLayerGroup" transform="translate(192.000000, 48.000000)">
                <path d="M20.3428925,13.6116061 C20.5923688,13.358416 20.5923688,12.9480538 20.3428925,12.6951495 L18.4401073,10.0000754 L18.4401073,5.64812088 C18.4401073,5.29033986 18.1539848,5 17.8007714,5 L5.88933584,5 C5.53612252,5 5.25,5.29033986 5.25,5.64812088 L5.25,19.5395689 C5.25,19.8973499 5.53612252,20.187404 5.88933584,20.187404 L17.8007714,20.187404 C18.1539848,20.187404 18.4401073,19.8973499 18.4401073,19.5395689 L18.4401073,14.6332252 L20.3428925,13.6116061 Z M18.4401073,17.6166388 L15.4055172,14.9141348 L18.4401073,17.6166388 Z M16.6362669,9.2807984 C16.6362669,10.0572289 16.0152541,10.6867749 15.2493479,10.6867749 C14.4831597,10.6867749 13.8624288,10.0572289 13.8624288,9.2807984 C13.8624288,8.5040821 14.4831597,7.87482189 15.2493479,7.87482189 C16.0152541,7.87482189 16.6362669,8.5040821 16.6362669,9.2807984 L16.6362669,9.2807984 Z M9.68673139,9.2807984 L13.8624288,9.2807984 L9.68673139,9.2807984 Z M16.6362669,9.2807984 L18.4401073,9.2807984 L16.6362669,9.2807984 Z" id="teacher" sketch:type="MSShapeGroup"></path>
            </g>
        </g>
    </g>
</svg>