<?xml version="1.0" encoding="UTF-8" standalone="no"?>
<svg width="24px" height="24px" viewBox="0 0 24 24" version="1.1" xmlns="http://www.w3.org/2000/svg" xmlns:xlink="http://www.w3.org/1999/xlink" xmlns:sketch="http://www.bohemiancoding.com/sketch/ns">
    <!-- Generator: Sketch 3.4.4 (17249) - http://www.bohemiancoding.com/sketch -->
    <title>icon_code@1x</title>
    <desc>Created with Sketch.</desc>
    <defs></defs>
    <g id="Icons" stroke="none" stroke-width="1" fill="none" fill-rule="evenodd" sketch:type="MSPage">
        <g id="Common-Icons" sketch:type="MSArtboardGroup" transform="translate(-144.000000, -48.000000)" stroke="#979797">
            <g id="icon_code" sketch:type="MSLayerGroup" transform="translate(144.000000, 48.000000)">
                <g id="number" transform="translate(4.000000, 4.000000)" sketch:type="MSShapeGroup">
                    <path d="M4.12235065,15.9304706 L15.0895219,15.9304706 C15.4944955,15.9304706 15.8227404,15.589451 15.8227404,15.1690588 L15.8227404,1.25627451 C15.8227404,0.835882353 15.4944955,0.494862745 15.0895219,0.494862745 L0.94595924,0.494862745 C0.540985628,0.494862745 0.212740741,0.835882353 0.212740741,1.25627451 L0.212740741,11.870549 C0.213333241,12.9557255 0.6245281,13.9411373 1.29257162,14.6696078 C2.00475638,15.445451 3.00874728,15.9304706 4.12235065,15.9304706 Z" id="Stroke-1"></path>
                    <path d="M5.67792593,4.15117647 L6.0957037,4.15117647 L8.36740741,12.2741569 L8.01392593,12.2741569 L7.19940741,9.33580392 L4.52059259,9.33580392 L3.6957037,12.2741569 L3.36325926,12.2741569 L5.67792593,4.15117647 L5.67792593,4.15117647 Z M7.11377778,9.02960784 L5.87051852,4.57094118 L5.85985185,4.57094118 L4.59585185,9.02960784 L7.11377778,9.02960784 L7.11377778,9.02960784 Z" id="Fill-2" stroke-width="0.5" fill="#979797"></path>
                    <path d="M9.2562963,9.56843137 C9.2562963,8.28623529 10.2097778,7.84388235 11.0242963,7.83258824 L12.2885926,7.83258824 L12.2885926,6.65266667 C12.2885926,5.85862745 11.7848889,5.54082353 11.0562963,5.54082353 C10.4456296,5.54082353 9.73837037,5.82443137 9.73837037,6.562 L9.73837037,6.93627451 L9.43822222,6.93627451 L9.43822222,6.57329412 C9.43822222,5.67698039 10.1991111,5.24592157 11.1205926,5.24592157 C11.9674074,5.24592157 12.6207407,5.65439216 12.6207407,6.58458824 L12.6207407,9.56843137 C12.6207407,9.94270588 12.6637037,10.7141569 12.6743704,11.054549 L12.3635556,11.054549 C12.3528889,10.8390196 12.3315556,10.2492157 12.3315556,10.0562745 L12.3102222,10.0562745 C11.9780741,10.9187059 11.2385185,11.1794118 10.6814815,11.1794118 C9.93125926,11.1794118 9.2562963,10.6463922 9.2562963,9.56843137 L9.2562963,9.56843137 Z M12.2885926,9.22803922 L12.2885926,8.1274902 L11.1419259,8.1274902 C10.4562963,8.1274902 9.60977778,8.35462745 9.60977778,9.53454902 C9.60977778,10.4647451 10.1668148,10.8845098 10.7348148,10.8845098 C11.5706667,10.8845098 12.2885926,10.2037255 12.2885926,9.22803922 L12.2885926,9.22803922 Z" id="Fill-3" stroke-width="0.5" fill="#979797"></path>
                </g>
            </g>
        </g>
    </g>
</svg>