<?xml version="1.0" encoding="UTF-8" standalone="no"?>
<svg width="24px" height="24px" viewBox="0 0 24 24" version="1.1" xmlns="http://www.w3.org/2000/svg" xmlns:xlink="http://www.w3.org/1999/xlink" xmlns:sketch="http://www.bohemiancoding.com/sketch/ns">
    <!-- Generator: Sketch 3.4.4 (17249) - http://www.bohemiancoding.com/sketch -->
    <title>icon_credit@1x</title>
    <desc>Created with Sketch.</desc>
    <defs></defs>
    <g id="Icons" stroke="none" stroke-width="1" fill="none" fill-rule="evenodd" sketch:type="MSPage">
        <g id="Common-Icons" sketch:type="MSArtboardGroup" transform="translate(-240.000000, -48.000000)" stroke="#979797">
            <g id="icon_credit" sketch:type="MSLayerGroup" transform="translate(240.000000, 48.000000)">
                <g id="credict" transform="translate(4.000000, 4.000000)" sketch:type="MSShapeGroup">
                    <path d="M16,7.99984855 C16,12.4183942 12.418172,16 7.99985148,16 C3.58182797,16 0,12.4183942 0,7.99984855 C0,3.5816058 3.58182797,0 7.99985148,0 C12.418172,0 16,3.5816058 16,7.99984855 Z" id="Stroke-1"></path>
                    <path d="M7.90266667,11.0122963 C6.7797037,10.9681481 6.03096296,10.4179259 5.77792593,9.548 L6.08607407,9.46 C6.36133333,10.2635556 7.05496296,10.7260741 8.07896296,10.7260741 C9.12459259,10.7260741 9.84014815,10.1755556 9.84014815,9.35007407 C9.84014815,8.55718519 9.33377778,8.19422222 8.73911111,7.996 C8.34296296,7.87481481 7.77051852,7.72074074 7.38533333,7.59955556 C6.42740741,7.30237037 6.12992593,6.80696296 6.12992593,6.11333333 C6.12992593,5.25466667 6.84548148,4.58296296 7.90266667,4.55007407 L7.90266667,3.47125926 L8.18888889,3.47125926 L8.18888889,4.55007407 C9.03659259,4.59392593 9.67481481,4.9242963 10.0383704,5.62888889 L9.75214815,5.76103704 C9.43274074,5.19955556 8.8602963,4.84725926 8.03451852,4.84725926 C7.24192593,4.84725926 6.48251852,5.27659259 6.48251852,6.08044444 C6.48251852,6.6197037 6.60340741,7.02711111 7.60548148,7.31333333 L8.92637037,7.70977778 C9.7082963,7.95185185 10.1814815,8.40340741 10.1814815,9.30592593 C10.1814815,10.1974815 9.46562963,10.9571852 8.18888889,11.0122963 L8.18888889,12.1794074 L7.90266667,12.1794074 L7.90266667,11.0122963" id="Fill-2" stroke-width="0.5" fill="#979797"></path>
                </g>
            </g>
        </g>
    </g>
</svg>