<?xml version="1.0" encoding="UTF-8" standalone="no"?>
<svg width="24px" height="24px" viewBox="0 0 24 24" version="1.1" xmlns="http://www.w3.org/2000/svg" xmlns:xlink="http://www.w3.org/1999/xlink" xmlns:sketch="http://www.bohemiancoding.com/sketch/ns">
    <!-- Generator: Sketch 3.4.4 (17249) - http://www.bohemiancoding.com/sketch -->
    <title>icon_notice_active@1x</title>
    <desc>Created with Sketch.</desc>
    <defs></defs>
    <g id="Icons" stroke="none" stroke-width="1" fill="none" fill-rule="evenodd" sketch:type="MSPage">
        <g id="Common-Icons" sketch:type="MSArtboardGroup" transform="translate(-96.000000, -96.000000)" stroke="#F89680">
            <g id="icon_notice_active" sketch:type="MSLayerGroup" transform="translate(96.000000, 96.000000)">
                <path d="M10.0354348,17.45408 C10.0354348,18.5344 10.9279348,19.41024 12.0288043,19.41024 C13.1296739,19.41024 14.0221739,18.5344 14.0221739,17.45408 M10.0354348,17.45408 L14.0221739,17.45408 M10.0354348,17.45408 L5.70402174,17.45408 C5.315,17.45408 5,17.14496 5,16.7632 L6.39076087,15.49376 L6.39076087,6.66944 C6.39076087,6.26848 6.72173913,5.94368 7.13,5.94368 L10.3390217,5.94368 L10.3390217,4.72576 C10.3390217,4.32512 10.6703261,4 11.078587,4 L12.9786957,4 C13.3872826,4 13.7182609,4.32512 13.7182609,4.72576 L13.7182609,5.94368 L16.9272826,5.94368 C17.3358696,5.94368 17.6668478,6.26848 17.6668478,6.66944 L17.6668478,15.49376 L19.0576087,16.7632 C19.0576087,17.14496 18.7422826,17.45408 18.353587,17.45408 L14.0221739,17.45408" id="notice" sketch:type="MSShapeGroup"></path>
            </g>
        </g>
    </g>
</svg>