<?xml version="1.0" encoding="UTF-8" standalone="no"?>
<svg width="72px" height="72px" viewBox="0 0 72 72" version="1.1" xmlns="http://www.w3.org/2000/svg" xmlns:xlink="http://www.w3.org/1999/xlink" xmlns:sketch="http://www.bohemiancoding.com/sketch/ns">
    <!-- Generator: Sketch 3.4.4 (17249) - http://www.bohemiancoding.com/sketch -->
    <title>illustration_trashcan_white@1x</title>
    <desc>Created with Sketch.</desc>
    <defs></defs>
    <g id="Icons" stroke="none" stroke-width="1" fill="none" fill-rule="evenodd" sketch:type="MSPage">
        <g id="Extras" sketch:type="MSArtboardGroup" transform="translate(-48.000000, -144.000000)" stroke="#FFFFFF" stroke-width="2">
            <g id="illustration_trashcan_white" sketch:type="MSLayerGroup" transform="translate(48.000000, 144.000000)">
                <path d="M30.0170566,8.98928302 L30.0170566,7.14573585 C30.0170566,5.9605283 30.978566,5 32.1637736,5 L37.9975849,5 C39.1827925,5 40.1433208,5.9605283 40.1433208,7.14573585 L40.1433208,8.98928302 L58.0156226,8.98928302 C59.2008302,8.98928302 60.1613585,9.94981132 60.1613585,11.1350189 L60.1613585,15.466717 C60.1613585,16.6519245 59.2008302,17.6124528 58.0156226,17.6124528 L12.1457358,17.6124528 C10.9605283,17.6124528 10,16.6519245 10,15.466717 L10,11.1350189 C10,9.94981132 10.9605283,8.98928302 12.1457358,8.98928302 L30.0170566,8.98928302 L30.0170566,8.98928302 Z M35.0806792,32.2872453 L35.0806792,53.5611321 L35.0806792,32.2872453 Z M45.2285283,32.2872453 L45.2285283,53.5611321 L45.2285283,32.2872453 Z M24.9318491,32.2872453 L24.9318491,53.5611321 L24.9318491,32.2872453 Z M56.978566,61.5073208 C56.978566,62.7356981 55.982717,63.7315472 54.7543396,63.7315472 L15.4070189,63.7315472 C14.1776604,63.7315472 13.1818113,62.7356981 13.1818113,61.5073208 L13.1818113,24.3410566 C13.1818113,23.1126792 14.1776604,22.1168302 15.4070189,22.1168302 L54.7543396,22.1168302 C55.982717,22.1168302 56.978566,23.1126792 56.978566,24.3410566 L56.978566,61.5073208 L56.978566,61.5073208 Z" id="can" sketch:type="MSShapeGroup"></path>
            </g>
        </g>
    </g>
</svg>