<?xml version="1.0" encoding="UTF-8" standalone="no"?>
<svg width="72px" height="72px" viewBox="0 0 72 72" version="1.1" xmlns="http://www.w3.org/2000/svg" xmlns:xlink="http://www.w3.org/1999/xlink" xmlns:sketch="http://www.bohemiancoding.com/sketch/ns">
    <!-- Generator: Sketch 3.4.4 (17249) - http://www.bohemiancoding.com/sketch -->
    <title>illustration_school@1x</title>
    <desc>Created with Sketch.</desc>
    <defs></defs>
    <g id="Icons" stroke="none" stroke-width="1" fill="none" fill-rule="evenodd" sketch:type="MSPage">
        <g id="Extras" sketch:type="MSArtboardGroup" transform="translate(-48.000000, -48.000000)" stroke-width="1.5" stroke="#F89680">
            <g id="illustration_school" sketch:type="MSLayerGroup" transform="translate(48.000000, 48.000000)">
                <g id="school-" transform="translate(6.000000, 8.000000)" sketch:type="MSShapeGroup">
                    <g id="Group-11">
                        <path d="M42.1929818,12.8491111 L42.1929818,25.1137348 L56.8668,25.1137348 C58.2337091,25.1137348 59.3409818,26.2415125 59.3409818,27.6326237 L59.3409818,51.7926237 C59.3409818,53.1837348 58.2337091,54.3126237 56.8668,54.3126237 L3.29225455,54.3126237 C1.92534545,54.3126237 0.818072727,53.1837348 0.818072727,51.7926237 L0.818072727,27.6326237 C0.818072727,26.2415125 1.92534545,25.1137348 3.29225455,25.1137348 L17.9660727,25.1137348 L17.9660727,12.8502222 L17.9660727,12.4591111 L27.9664364,1.59022222 C29.1326182,0.282444444 31.0253455,0.282444444 32.1926182,1.59022222 L42.1929818,12.4591111 L42.1929818,12.8491111 L42.1929818,12.8491111 Z" id="Stroke-5"></path>
                        <path d="M35.55,54.3120681 C35.55,54.3120681 34.4427273,54.290957 33.0758182,54.290957 L27.0834545,54.290957 L24.6092727,54.290957 L24.6092727,37.2731792 C24.6092727,35.880957 25.7165455,34.7531792 27.0834545,34.7531792 L33.0758182,34.7531792 C34.4427273,34.7531792 35.55,35.880957 35.55,37.2731792 L35.55,54.3120681 L35.55,54.3120681 Z" id="Stroke-7"></path>
                        <path d="M34.716,21.7893584 C34.716,23.1804695 33.6087273,24.3093584 32.2418182,24.3093584 L27.9174545,24.3093584 C26.5505455,24.3093584 25.4432727,23.1804695 25.4432727,21.7893584 L25.4432727,17.3838029 C25.4432727,15.9926918 26.5505455,14.864914 27.9174545,14.864914 L32.2418182,14.864914 C33.6087273,14.864914 34.716,15.9926918 34.716,17.3838029 L34.716,21.7893584 L34.716,21.7893584 Z" id="Stroke-9"></path>
                    </g>
                </g>
            </g>
        </g>
    </g>
</svg>