<?xml version="1.0" encoding="UTF-8" standalone="no"?>
<svg width="72px" height="72px" viewBox="0 0 72 72" version="1.1" xmlns="http://www.w3.org/2000/svg" xmlns:xlink="http://www.w3.org/1999/xlink" xmlns:sketch="http://www.bohemiancoding.com/sketch/ns">
    <!-- Generator: Sketch 3.4.4 (17249) - http://www.bohemiancoding.com/sketch -->
    <title>illustration_time@1x</title>
    <desc>Created with Sketch.</desc>
    <defs></defs>
    <g id="Icons" stroke="none" stroke-width="1" fill="none" fill-rule="evenodd" sketch:type="MSPage">
        <g id="Extras" sketch:type="MSArtboardGroup" transform="translate(-240.000000, -48.000000)" stroke="#F89680" stroke-width="1.5">
            <g id="illustration_time" sketch:type="MSLayerGroup" transform="translate(240.000000, 48.000000)">
                <g id="year" transform="translate(7.000000, 7.000000)" sketch:type="MSShapeGroup">
                    <path d="M58,29 C58,45.0158267 45.0167094,58 29,58 C12.9832906,58 0,45.0158267 0,29 C0,12.9830752 12.9832906,0 29,0 C45.0167094,0 58,12.9830752 58,29 Z" id="Stroke-1"></path>
                    <path d="M55.147541,29 C55.147541,43.4404995 43.4412953,55.147541 29,55.147541 C14.5587047,55.147541 2.85245902,43.4404995 2.85245902,29 C2.85245902,14.5585105 14.5587047,2.85245902 29,2.85245902 C43.4412953,2.85245902 55.147541,14.5585105 55.147541,29 Z" id="Stroke-1"></path>
                    <path d="M28.5245902,12.3606557 L28.5245902,31.3770492 L47.5409836,31.3770492" id="Path-619"></path>
                </g>
            </g>
        </g>
    </g>
</svg>