<?xml version="1.0" encoding="UTF-8" standalone="no"?>
<svg width="24px" height="24px" viewBox="0 0 24 24" version="1.1" xmlns="http://www.w3.org/2000/svg" xmlns:xlink="http://www.w3.org/1999/xlink" xmlns:sketch="http://www.bohemiancoding.com/sketch/ns">
    <!-- Generator: Sketch 3.4.4 (17249) - http://www.bohemiancoding.com/sketch -->
    <title>tab_icon_friend@1x</title>
    <desc>Created with Sketch.</desc>
    <defs></defs>
    <g id="Icons" stroke="none" stroke-width="1" fill="none" fill-rule="evenodd" sketch:type="MSPage">
        <g id="Tab-Icons" sketch:type="MSArtboardGroup" transform="translate(-192.000000, -48.000000)" stroke="#979797" stroke-width="1.5">
            <g id="tab_icon_friend" sketch:type="MSLayerGroup" transform="translate(192.000000, 48.000000)">
                <path d="M19.9909925,14.9543898 L22.7306048,13.4740902 C23.0897984,13.1077409 23.0897984,12.513303 22.7306048,12.1465397 L19.9909925,8.24253942 L19.9909925,1.9388477 C19.9909925,1.42016332 19.5786301,1 19.0704828,1 L1.92050973,1 C1.41195652,1 1,1.42016332 1,1.9388477 L1,22.0611523 C1,22.5794227 1.41195652,23 1.92050973,23 L19.0704828,23 C19.5786301,23 19.9909925,22.5794227 19.9909925,22.0611523 L19.9909925,14.9543898 L19.9909925,14.9543898 Z M19.9909925,19.2756557 L15.6218182,15.3613066 L19.9909925,19.2756557 Z" id="chatlist" sketch:type="MSShapeGroup"></path>
            </g>
        </g>
    </g>
</svg>