<?xml version="1.0" encoding="UTF-8" standalone="no"?>
<svg width="24px" height="24px" viewBox="0 0 24 24" version="1.1" xmlns="http://www.w3.org/2000/svg" xmlns:xlink="http://www.w3.org/1999/xlink" xmlns:sketch="http://www.bohemiancoding.com/sketch/ns">
    <!-- Generator: Sketch 3.4.4 (17249) - http://www.bohemiancoding.com/sketch -->
    <title>tab_icon_board_active@1x</title>
    <desc>Created with Sketch.</desc>
    <defs></defs>
    <g id="Icons" stroke="none" stroke-width="1" fill="none" fill-rule="evenodd" sketch:type="MSPage">
        <g id="Tab-Icons" sketch:type="MSArtboardGroup" transform="translate(-96.000000, -96.000000)" fill="#F89680">
            <g id="tab_icon_board_active" sketch:type="MSLayerGroup" transform="translate(96.000000, 96.000000)">
                <path d="M14.850931,13.993495 L14.8509309,1.91535498 C14.8509309,0.996718724 14.1082019,0.25 13.1905463,0.25 L1.91038455,0.25 C0.992414686,0.25 0.25,0.996630141 0.25,1.91535498 L0.25000013,13.993495 C0.25000013,14.9125348 0.992327625,15.65885 1.91038468,15.65885 L13.1905465,15.65885 C14.1082893,15.65885 14.850931,14.9124463 14.850931,13.993495 Z M13.2050125,17.1681 L1.91038468,17.1681002 C0.992414815,17.1681002 0.25000013,17.9147303 0.25000013,18.8334551 L0.25,22.0850486 C0.25,23.0037981 0.992441,23.75 1.91038455,23.75 L13.2050123,23.7499998 C14.1226417,23.7499998 14.8653969,23.0037095 14.8653969,22.0850484 L14.865397,18.833455 C14.865397,17.9148187 14.1226681,17.1681 13.2050125,17.1681 Z M22.0996157,23.75 C23.0193341,23.75 23.7600002,22.9977573 23.7600002,22.0754315 L23.7600002,11.048341 L23.7600002,1.92497636 C23.7600002,1.00267314 23.0193616,0.25 22.0996157,0.25 L18.0141787,0.25 C17.0947477,0.25 16.3537942,1.00276379 16.3537942,1.92497636 L16.3537942,22.0754315 C16.3537942,22.9976668 17.0947751,23.75 18.0141787,23.75 L22.0996157,23.75 Z" id="activityboard_pink" sketch:type="MSShapeGroup"></path>
            </g>
        </g>
    </g>
</svg>