<?xml version="1.0" encoding="UTF-8" standalone="no"?>
<svg width="24px" height="24px" viewBox="0 0 24 24" version="1.1" xmlns="http://www.w3.org/2000/svg" xmlns:xlink="http://www.w3.org/1999/xlink" xmlns:sketch="http://www.bohemiancoding.com/sketch/ns">
    <!-- Generator: Sketch 3.4.4 (17249) - http://www.bohemiancoding.com/sketch -->
    <title>tab_icon_more_active@1x</title>
    <desc>Created with Sketch.</desc>
    <defs></defs>
    <g id="Icons" stroke="none" stroke-width="1" fill="none" fill-rule="evenodd" sketch:type="MSPage">
        <g id="Tab-Icons" sketch:type="MSArtboardGroup" transform="translate(-240.000000, -96.000000)" stroke="#F89680" stroke-width="1.5" fill="#F89680">
            <g id="tab_icon_more_active" sketch:type="MSLayerGroup" transform="translate(240.000000, 96.000000)">
                <path d="M4,7 C5.65685425,7 7,5.65685425 7,4 C7,2.34314575 5.65685425,1 4,1 C2.34314575,1 1,2.34314575 1,4 C1,5.65685425 2.34314575,7 4,7 L4,7 Z M12,7 C13.6568542,7 15,5.65685425 15,4 C15,2.34314575 13.6568542,1 12,1 C10.3431458,1 9,2.34314575 9,4 C9,5.65685425 10.3431458,7 12,7 L12,7 Z M20,7 C21.6568542,7 23,5.65685425 23,4 C23,2.34314575 21.6568542,1 20,1 C18.3431458,1 17,2.34314575 17,4 C17,5.65685425 18.3431458,7 20,7 L20,7 Z M4,15 C5.65685425,15 7,13.6568542 7,12 C7,10.3431458 5.65685425,9 4,9 C2.34314575,9 1,10.3431458 1,12 C1,13.6568542 2.34314575,15 4,15 L4,15 Z M12,15 C13.6568542,15 15,13.6568542 15,12 C15,10.3431458 13.6568542,9 12,9 C10.3431458,9 9,10.3431458 9,12 C9,13.6568542 10.3431458,15 12,15 L12,15 Z M20,15 C21.6568542,15 23,13.6568542 23,12 C23,10.3431458 21.6568542,9 20,9 C18.3431458,9 17,10.3431458 17,12 C17,13.6568542 18.3431458,15 20,15 L20,15 Z M4,23 C5.65685425,23 7,21.6568542 7,20 C7,18.3431458 5.65685425,17 4,17 C2.34314575,17 1,18.3431458 1,20 C1,21.6568542 2.34314575,23 4,23 L4,23 Z M12,23 C13.6568542,23 15,21.6568542 15,20 C15,18.3431458 13.6568542,17 12,17 C10.3431458,17 9,18.3431458 9,20 C9,21.6568542 10.3431458,23 12,23 L12,23 Z M20,23 C21.6568542,23 23,21.6568542 23,20 C23,18.3431458 21.6568542,17 20,17 C18.3431458,17 17,18.3431458 17,20 C17,21.6568542 18.3431458,23 20,23 L20,23 Z" id="more_pink" sketch:type="MSShapeGroup"></path>
            </g>
        </g>
    </g>
</svg>