<?xml version="1.0" encoding="UTF-8" standalone="no"?>
<svg width="24px" height="24px" viewBox="0 0 24 24" version="1.1" xmlns="http://www.w3.org/2000/svg" xmlns:xlink="http://www.w3.org/1999/xlink" xmlns:sketch="http://www.bohemiancoding.com/sketch/ns">
    <!-- Generator: Sketch 3.4.4 (17249) - http://www.bohemiancoding.com/sketch -->
    <title>tab_icon_table_active@1x</title>
    <desc>Created with Sketch.</desc>
    <defs></defs>
    <g id="Icons" stroke="none" stroke-width="1" fill="none" fill-rule="evenodd" sketch:type="MSPage">
        <g id="Tab-Icons" sketch:type="MSArtboardGroup" transform="translate(-48.000000, -96.000000)" fill="#F89680">
            <g id="tab_icon_table_active" sketch:type="MSLayerGroup" transform="translate(48.000000, 96.000000)">
                <path d="M6.15116908,23.75 L22.0530451,23.75 C22.9871107,23.75 23.75,23.001882 23.75,22.071507 L23.75,5.71790468 L6.15116908,5.71790468 L6.15116908,23.75 Z M4.65116908,23.75 L1.94653736,23.75 C1.0127747,23.75 0.25,23.0017665 0.25,22.071507 L0.25,5.71790468 L4.65116908,5.71790468 L4.65116908,23.75 Z M6.15116908,0.25 L22.0530451,0.25 C22.9872253,0.25 23.75,0.998233489 23.75,1.92890254 L23.75,4.21790468 L6.15116908,4.21790468 L6.15116908,0.25 Z M4.65116908,0.25 L1.94653736,0.25 C1.01266011,0.25 0.25,0.998349029 0.25,1.92890254 L0.25,4.21790468 L4.65116908,4.21790468 L4.65116908,0.25 Z" id="table_pink" sketch:type="MSShapeGroup"></path>
            </g>
        </g>
    </g>
</svg>